# Blender v2.93.5 OBJ File: 'Dungeon.blend'
# www.blender.org
mtllib Flag.mtl
o Cube.001
v -1.989128 -3.024466 0.565459
v -1.989128 3.391248 0.565459
v -1.989128 -3.024466 0.333955
v -1.989128 3.391248 0.333955
v 1.989128 -3.024466 0.565459
v 1.989128 3.391248 0.565459
v 1.989128 -3.024466 0.333955
v 1.989128 3.391248 0.333955
v -0.037621 -5.575995 0.565459
v -0.037621 -5.575995 0.333955
v 0.037621 -5.575995 0.565459
v 0.037621 -5.575995 0.333955
v -1.989128 1.328104 0.565459
v -1.989128 1.328104 0.333955
v 1.989128 1.328104 0.333955
v 1.989128 1.328104 0.565459
v -1.989128 1.007669 0.333955
v 1.989128 1.007669 0.333955
v 1.989128 1.007669 0.565459
v -1.989128 1.007669 0.565459
v -1.703866 -3.024466 0.333955
v -1.594552 3.391248 0.333955
v -1.703866 -3.024466 0.565459
v -1.594552 3.391248 0.565459
v -0.032225 -5.575995 0.333955
v -0.032225 -5.575995 0.565459
v -1.703866 1.328104 0.565459
v -1.703866 1.328104 0.333955
v -1.703866 1.007669 0.333955
v -1.703866 1.007669 0.565459
v -1.989128 -0.268557 0.333955
v 1.989128 -0.268557 0.333955
v 1.989128 -0.268557 0.565459
v -1.989128 -0.268557 0.565459
v -1.611579 -0.268557 0.565459
v -1.611579 -0.268557 0.333955
v -1.989128 -0.582990 0.333955
v 1.989128 -0.582990 0.333955
v 1.989128 -0.582990 0.565459
v -1.611579 -0.582990 0.565459
v -1.611579 -0.582990 0.333955
v -1.989128 -0.582990 0.565459
v -1.989128 3.010217 0.565459
v -1.989128 3.010217 0.333955
v 1.989128 3.010217 0.333955
v 1.989128 3.010217 0.565459
v -1.593122 3.010217 0.565459
v -1.593122 3.010217 0.333955
v -1.989128 2.354008 0.333955
v 1.989128 2.354008 0.333955
v 1.989128 2.354008 0.565459
v -1.593122 2.354008 0.565459
v -1.593122 2.354008 0.333955
v -1.989128 2.354008 0.565459
v -1.989128 -1.803728 0.333955
v 1.989128 -1.803728 0.333955
v 1.989128 -1.803728 0.565459
v -1.657722 -1.803728 0.565459
v -1.657722 -1.803728 0.333955
v -1.989128 -1.803728 0.565459
v -1.989128 -2.266129 0.333955
v 1.989128 -2.266129 0.333955
v 1.989128 -2.266129 0.565459
v -1.675201 -2.266129 0.565459
v -1.675201 -2.266129 0.333955
v -1.989128 -2.266129 0.565459
v 1.604442 3.391248 0.333955
v 1.604442 -3.024466 0.565459
v 0.030345 -5.575995 0.565459
v 1.604442 1.328104 0.333955
v 1.604442 1.007669 0.333955
v 1.604442 -3.024466 0.333955
v 1.604442 3.391248 0.565459
v 0.030345 -5.575995 0.333955
v 1.604442 1.328104 0.565459
v 1.604442 1.007669 0.565459
v 1.614055 -0.268557 0.565459
v 1.614055 -0.268557 0.333955
v 1.614055 -0.582990 0.333955
v 1.614055 -0.582990 0.565459
v 1.615977 3.010217 0.565459
v 1.615977 3.010217 0.333955
v 1.615977 2.354008 0.333955
v 1.615977 2.354008 0.565459
v 1.609248 -1.803728 0.565459
v 1.609248 -1.803728 0.333955
v 1.607427 -2.266129 0.333955
v 1.607427 -2.266129 0.565459
vt 0.054860 0.357399
vt 0.013518 0.357399
vt 0.013518 0.686007
vt 0.054860 0.686007
vt 0.054860 0.836013
vt 0.013518 0.833770
vt 0.013518 0.908592
vt 0.054860 0.908592
vt 0.054860 0.686007
vt 0.013518 0.686007
vt 0.013518 0.357399
vt 0.054860 0.357399
vt 0.054860 0.211838
vt 0.013518 0.190298
vt 0.013518 0.134814
vt 0.054860 0.134813
vt 0.343736 0.908592
vt 0.656264 0.908592
vt 0.656264 0.529020
vt 0.343736 0.529020
vt 0.343736 0.190298
vt 0.343736 0.134813
vt 0.656264 0.134813
vt 0.656264 0.190298
vt 0.343736 0.527605
vt 0.656264 0.527605
vt 0.709636 0.190298
vt 0.709636 0.134813
vt 0.986482 0.514385
vt 0.986482 0.515435
vt 0.709636 0.833770
vt 0.709636 0.908592
vt 0.986482 0.529020
vt 0.986482 0.527605
vt 0.656264 0.134813
vt 0.343736 0.134813
vt 0.343736 0.514385
vt 0.656264 0.514385
vt 0.577183 0.357399
vt 0.627355 0.357399
vt 0.627355 0.686007
vt 0.577183 0.686007
vt 0.656264 0.834350
vt 0.656264 0.908592
vt 0.343736 0.908592
vt 0.343736 0.834350
vt 0.410614 0.357399
vt 0.272141 0.357399
vt 0.272141 0.686007
vt 0.410614 0.686007
vt 0.410614 0.835639
vt 0.272141 0.833770
vt 0.272141 0.908592
vt 0.410614 0.908592
vt 0.410614 0.686007
vt 0.272141 0.686007
vt 0.272141 0.357399
vt 0.410614 0.357399
vt 0.410614 0.208248
vt 0.272141 0.190298
vt 0.272141 0.134813
vt 0.410614 0.134813
vt 0.410614 0.835639
vt 0.272141 0.833770
vt 0.410614 0.134813
vt 0.272141 0.134813
vt 0.272141 0.190298
vt 0.410614 0.208248
vt 0.237373 0.833770
vt 0.237373 0.190298
vt 0.709636 0.134813
vt 0.709636 0.190298
vt 0.986482 0.515435
vt 0.986482 0.514385
vt 0.709636 0.833770
vt 0.986482 0.527605
vt 0.343736 0.515435
vt 0.656264 0.515435
vt 0.343736 0.833770
vt 0.656264 0.833770
vt 0.054860 0.836013
vt 0.013518 0.833770
vt 0.054860 0.134813
vt 0.013518 0.134814
vt 0.013518 0.190298
vt 0.054860 0.211838
vt 0.343736 0.134813
vt 0.343736 0.190298
vt 0.656264 0.190298
vt 0.656264 0.134813
vt 0.237373 0.686007
vt 0.272141 0.686007
vt 0.272141 0.357399
vt 0.237373 0.357399
vt 0.343736 0.190298
vt 0.343736 0.134813
vt 0.656264 0.134813
vt 0.656264 0.190298
vt 0.656264 0.134813
vt 0.656264 0.211837
vt 0.343736 0.211837
vt 0.343736 0.134813
vt 0.444731 0.835639
vt 0.444731 0.208248
vt 0.656264 0.211837
vt 0.656264 0.134813
vt 0.343736 0.134813
vt 0.343736 0.211837
vt 0.410614 0.357399
vt 0.444731 0.357399
vt 0.444731 0.686007
vt 0.410614 0.686007
vt 0.656264 0.835639
vt 0.656264 0.908592
vt 0.343736 0.908592
vt 0.343736 0.835639
vt 0.126060 0.357399
vt 0.054860 0.357399
vt 0.054860 0.686007
vt 0.126060 0.686007
vt 0.577183 0.357399
vt 0.444731 0.357399
vt 0.444731 0.686007
vt 0.577183 0.686007
vt 0.577183 0.834705
vt 0.444731 0.835639
vt 0.444731 0.908592
vt 0.577183 0.908592
vt 0.577183 0.686007
vt 0.444731 0.686007
vt 0.444731 0.357399
vt 0.577183 0.357399
vt 0.577183 0.199273
vt 0.444731 0.134813
vt 0.577183 0.134813
vt 0.577183 0.834705
vt 0.577183 0.134813
vt 0.444731 0.134813
vt 0.444731 0.208248
vt 0.577183 0.199273
vt 0.656264 0.134813
vt 0.656264 0.208248
vt 0.343736 0.208248
vt 0.343736 0.134813
vt 0.126060 0.836013
vt 0.126060 0.211837
vt 0.656264 0.208248
vt 0.656264 0.134813
vt 0.343736 0.134813
vt 0.343736 0.208248
vt 0.237373 0.357399
vt 0.272141 0.357399
vt 0.272141 0.686007
vt 0.237373 0.686007
vt 0.656264 0.833770
vt 0.656264 0.908592
vt 0.343736 0.908592
vt 0.343736 0.833770
vt 0.444731 0.357399
vt 0.410614 0.357399
vt 0.410614 0.686007
vt 0.444731 0.686007
vt 0.237373 0.357399
vt 0.126060 0.357399
vt 0.126060 0.686007
vt 0.237373 0.686007
vt 0.237373 0.833770
vt 0.126060 0.836013
vt 0.126060 0.908592
vt 0.237373 0.908592
vt 0.237373 0.686007
vt 0.126060 0.686007
vt 0.126060 0.357399
vt 0.237373 0.357399
vt 0.126060 0.134814
vt 0.237373 0.134813
vt 0.237373 0.134813
vt 0.126060 0.134814
vt 0.126060 0.211837
vt 0.237373 0.190298
vt 0.656264 0.134813
vt 0.656264 0.195873
vt 0.343736 0.195873
vt 0.343736 0.134813
vt 0.627355 0.834350
vt 0.627355 0.195873
vt 0.656264 0.199273
vt 0.656264 0.134813
vt 0.343736 0.134813
vt 0.343736 0.199273
vt 0.054860 0.357399
vt 0.126060 0.357399
vt 0.126060 0.686007
vt 0.054860 0.686007
vt 0.656264 0.836013
vt 0.656264 0.908592
vt 0.343736 0.908592
vt 0.343736 0.836013
vt 0.627355 0.357399
vt 0.577183 0.357399
vt 0.577183 0.686007
vt 0.627355 0.686007
vt 0.709636 0.357399
vt 0.627355 0.357399
vt 0.627355 0.686007
vt 0.709636 0.686007
vt 0.627355 0.834350
vt 0.627355 0.908592
vt 0.709636 0.686007
vt 0.627355 0.686007
vt 0.627355 0.357399
vt 0.709636 0.357399
vt 0.627355 0.134813
vt 0.627355 0.134813
vt 0.627355 0.195873
vt 0.709636 0.908592
vt 0.627355 0.908592
vt 0.656264 0.908592
vt 0.656264 0.836013
vt 0.343736 0.836013
vt 0.343736 0.908592
vt 0.237373 0.908592
vt 0.126060 0.908592
vt 0.656264 0.908592
vt 0.656264 0.833770
vt 0.343736 0.833770
vt 0.343736 0.908592
vt 0.577183 0.908592
vt 0.444731 0.908592
vt 0.656264 0.908592
vt 0.656264 0.835639
vt 0.343736 0.835639
vt 0.343736 0.908592
vt 0.054860 0.908592
vt 0.013518 0.908592
vt 0.343736 0.908592
vt 0.656264 0.908592
vt 0.986482 0.529020
vt 0.656264 0.908592
vt 0.656264 0.834705
vt 0.343736 0.834705
vt 0.343736 0.908592
vt 0.410614 0.908592
vt 0.272141 0.908592
vn -1.0000 0.0000 0.0000
vn 0.0000 0.0000 -1.0000
vn 1.0000 0.0000 0.0000
vn 0.0000 0.0000 1.0000
vn 0.7943 -0.6075 0.0000
vn 0.0000 1.0000 0.0000
vn 0.0000 -1.0000 0.0000
vn -0.7943 -0.6075 0.0000
vn 1.0000 -0.0039 0.0000
vn -0.9993 0.0378 0.0000
usemtl Flag
s off
f 43/1/1 2/2/1 4/3/1 44/4/1
f 82/5/2 67/6/2 8/7/2 45/8/2
f 45/9/3 8/10/3 6/11/3 46/12/3
f 47/13/4 24/14/4 2/15/4 43/16/4
f 7/17/5 5/18/5 11/19/5 12/20/5
f 22/21/6 4/22/6 2/23/6 24/24/6
f 74/25/7 12/20/7 11/19/7 69/26/7
f 23/27/4 1/28/4 9/29/4 26/30/4
f 72/31/2 7/32/2 12/33/2 74/34/2
f 1/35/8 3/36/8 10/37/8 9/38/8
f 85/39/9 88/40/9 87/41/9 86/42/9
f 88/43/6 63/44/6 62/45/6 87/46/6
f 34/47/1 20/48/1 17/49/1 31/50/1
f 78/51/2 71/52/2 18/53/2 32/54/2
f 32/55/3 18/56/3 19/57/3 33/58/3
f 35/59/4 30/60/4 20/61/4 34/62/4
f 77/63/4 76/64/4 30/60/4 35/59/4
f 31/65/2 17/66/2 29/67/2 36/68/2
f 76/64/4 75/69/4 27/70/4 30/60/4
f 3/71/2 21/72/2 25/73/2 10/74/2
f 68/75/4 23/27/4 26/30/4 69/76/4
f 10/37/7 25/77/7 26/78/7 9/38/7
f 67/79/6 22/21/6 24/24/6 73/80/6
f 81/81/4 73/82/4 24/14/4 47/13/4
f 44/83/2 4/84/2 22/85/2 48/86/2
f 14/87/7 28/88/7 27/89/7 13/90/7
f 28/91/1 29/92/1 30/93/1 27/94/1
f 29/95/6 17/96/6 20/97/6 30/98/6
f 54/99/6 52/100/6 53/101/6 49/102/6
f 80/103/4 77/63/4 35/59/4 40/104/4
f 47/105/7 43/106/7 44/107/7 48/108/7
f 77/109/3 80/110/3 79/111/3 78/112/3
f 80/113/6 39/114/6 38/115/6 79/116/6
f 52/117/1 47/118/1 48/119/1 53/120/1
f 60/121/1 42/122/1 37/123/1 55/124/1
f 86/125/2 79/126/2 38/127/2 56/128/2
f 56/129/3 38/130/3 39/131/3 57/132/3
f 58/133/4 40/104/4 42/134/4 60/135/4
f 85/136/4 80/103/4 40/104/4 58/133/4
f 55/137/2 37/138/2 41/139/2 59/140/2
f 42/141/6 40/142/6 41/143/6 37/144/6
f 84/145/4 81/81/4 47/13/4 52/146/4
f 35/147/7 34/148/7 31/149/7 36/150/7
f 75/151/3 76/152/3 71/153/3 70/154/3
f 76/155/6 19/156/6 18/157/6 71/158/6
f 40/159/1 35/160/1 36/161/1 41/162/1
f 13/163/1 54/164/1 49/165/1 14/166/1
f 70/167/2 83/168/2 50/169/2 15/170/2
f 15/171/3 50/172/3 51/173/3 16/174/3
f 27/70/4 52/146/4 54/175/4 13/176/4
f 75/69/4 84/145/4 52/146/4 27/70/4
f 14/177/2 49/178/2 53/179/2 28/180/2
f 66/181/6 64/182/6 65/183/6 61/184/6
f 88/185/4 85/136/4 58/133/4 64/186/4
f 58/187/7 60/188/7 55/189/7 59/190/7
f 81/191/3 84/192/3 83/193/3 82/194/3
f 84/195/6 51/196/6 50/197/6 83/198/6
f 64/199/10 58/200/10 59/201/10 65/202/10
f 1/203/1 66/204/1 61/205/1 3/206/1
f 72/31/2 87/207/2 62/208/2 7/32/2
f 7/209/3 62/210/3 63/211/3 5/212/3
f 23/27/4 64/186/4 66/213/4 1/28/4
f 68/75/4 88/185/4 64/186/4 23/27/4
f 3/71/2 61/214/2 65/215/2 21/72/2
f 5/216/4 63/217/4 88/185/4 68/75/4
f 21/72/2 65/215/2 87/207/2 72/31/2
f 65/215/2 59/140/2 86/125/2 87/207/2
f 46/218/7 81/219/7 82/220/7 45/221/7
f 16/222/4 51/223/4 84/145/4 75/69/4
f 28/180/2 53/179/2 83/168/2 70/167/2
f 53/179/2 48/86/2 82/5/2 83/168/2
f 16/224/7 75/225/7 70/226/7 15/227/7
f 57/228/4 39/229/4 80/103/4 85/136/4
f 59/140/2 41/139/2 79/126/2 86/125/2
f 41/139/2 36/68/2 78/51/2 79/126/2
f 33/230/7 77/231/7 78/232/7 32/233/7
f 46/234/4 6/235/4 73/82/4 81/81/4
f 8/236/6 67/79/6 73/80/6 6/237/6
f 5/216/4 68/75/4 69/76/4 11/238/4
f 57/239/7 85/240/7 86/241/7 56/242/7
f 33/243/4 19/244/4 76/64/4 77/63/4
f 36/68/2 29/67/2 71/52/2 78/51/2
f 29/67/2 28/180/2 70/167/2 71/52/2
f 21/72/2 72/31/2 74/34/2 25/73/2
f 25/77/7 74/25/7 69/26/7 26/78/7
f 48/86/2 22/85/2 67/6/2 82/5/2
