# Blender v2.93.5 OBJ File: 'AMONGUS.blend'
# www.blender.org
mtllib Vent.mtl
o Cube
v -1.355934 -0.122159 0.980460
v -1.355934 0.122159 0.980460
v -1.355934 -0.122159 -0.980460
v -1.355934 0.122159 -0.980460
v 1.355935 -0.122159 0.980460
v 1.355935 0.122159 0.980460
v 1.355935 -0.122159 -0.980460
v 1.355935 0.122159 -0.980460
v 1.218186 -0.122159 -0.503846
v 1.218186 -0.122159 -0.169557
v 1.218186 -0.122159 -0.838135
v 1.218186 -0.122159 0.833311
v 1.218186 -0.122159 0.499022
v 1.218186 -0.122159 0.164732
v -1.218186 -0.122159 0.833311
v -1.218186 -0.122159 0.499022
v -1.218186 -0.122159 0.164732
v -1.218186 -0.122159 -0.169557
v -1.218186 -0.122159 -0.503846
v -1.218186 -0.122159 -0.838135
v -1.218186 0.122159 0.833311
v -1.218186 0.122159 0.499022
v -1.218186 0.122159 0.164732
v -1.218186 0.122159 -0.169557
v -1.218186 0.122159 -0.503846
v -1.218186 0.122159 -0.838135
v 1.218186 0.122159 0.164732
v 1.218186 0.122159 -0.503846
v 1.218186 0.122159 -0.169557
v 1.218186 0.122159 -0.838135
v 1.218186 0.122159 0.833311
v 1.218186 0.122159 0.499022
vt 0.375000 0.000000
vt 0.625000 0.000000
vt 0.625000 0.250000
vt 0.375000 0.250000
vt 0.625000 0.500000
vt 0.375000 0.500000
vt 0.625000 0.750000
vt 0.375000 0.750000
vt 0.625000 1.000000
vt 0.375000 1.000000
vt 0.362301 0.731240
vt 0.362301 0.688621
vt 0.362301 0.646002
vt 0.362301 0.603383
vt 0.137699 0.603383
vt 0.137699 0.646002
vt 0.137699 0.688621
vt 0.137699 0.731240
vt 0.125000 0.750000
vt 0.125000 0.500000
vt 0.137699 0.518145
vt 0.137699 0.560764
vt 0.362301 0.560764
vt 0.362301 0.518145
vt 0.862301 0.646002
vt 0.862301 0.688621
vt 0.637699 0.688621
vt 0.637699 0.646002
vt 0.862301 0.731240
vt 0.875000 0.750000
vt 0.637699 0.731240
vt 0.875000 0.500000
vt 0.862301 0.603383
vt 0.637699 0.603383
vt 0.637699 0.518145
vt 0.637699 0.560764
vt 0.862301 0.560764
vt 0.862301 0.518145
vt 0.570566 0.000000
vt 0.429434 0.000000
vt 0.429434 0.250000
vt 0.570566 0.250000
vt 0.429434 0.500000
vt 0.570566 0.500000
vt 0.429434 0.750000
vt 0.570566 0.750000
vt 0.429434 1.000000
vt 0.570566 1.000000
vt 0.570566 0.000000
vt 0.429434 0.000000
vt 0.429434 0.250000
vt 0.570566 0.250000
vt 0.429434 0.500000
vt 0.570566 0.500000
vt 0.429434 0.750000
vt 0.570566 0.750000
vt 0.429434 1.000000
vt 0.570566 1.000000
vt 0.570566 0.000000
vt 0.429434 0.000000
vt 0.429434 0.250000
vt 0.570566 0.250000
vt 0.429434 0.500000
vt 0.570566 0.500000
vt 0.429434 0.750000
vt 0.570566 0.750000
vt 0.429434 1.000000
vt 0.570566 1.000000
vn -1.0000 0.0000 0.0000
vn 0.0000 0.0000 -1.0000
vn 1.0000 0.0000 0.0000
vn 0.0000 0.0000 1.0000
vn 0.0000 -1.0000 0.0000
vn 0.0000 1.0000 0.0000
usemtl None
s off
f 1/1/1 2/2/1 4/3/1 3/4/1
f 3/4/2 4/3/2 8/5/2 7/6/2
f 7/6/3 8/5/3 6/7/3 5/8/3
f 5/8/4 6/7/4 2/9/4 1/10/4
f 7/6/5 5/8/5 12/11/5 13/12/5 14/13/5 10/14/5 18/15/5 17/16/5 16/17/5 15/18/5 1/19/5 3/20/5 20/21/5 19/22/5 9/23/5 11/24/5
f 5/8/5 1/19/5 15/18/5 12/11/5
f 17/16/5 14/13/5 13/12/5 16/17/5
f 20/21/5 3/20/5 7/6/5 11/24/5
f 23/25/6 22/26/6 32/27/6 27/28/6
f 21/29/6 2/30/6 6/7/6 31/31/6
f 4/32/6 2/30/6 21/29/6 22/26/6 23/25/6 24/33/6 29/34/6 27/28/6 32/27/6 31/31/6 6/7/6 8/5/6 30/35/6 28/36/6 25/37/6 26/38/6
f 30/35/6 8/5/6 4/32/6 26/38/6
f 21/39/3 15/40/3 16/41/3 22/42/3
f 22/42/4 16/41/4 13/43/4 32/44/4
f 13/43/1 12/45/1 31/46/1 32/44/1
f 12/45/2 15/47/2 21/48/2 31/46/2
f 23/49/3 17/50/3 18/51/3 24/52/3
f 24/52/4 18/51/4 10/53/4 29/54/4
f 10/53/1 14/55/1 27/56/1 29/54/1
f 14/55/2 17/57/2 23/58/2 27/56/2
f 25/59/3 19/60/3 20/61/3 26/62/3
f 26/62/4 20/61/4 11/63/4 30/64/4
f 11/63/1 9/65/1 28/66/1 30/64/1
f 9/65/2 19/67/2 25/68/2 28/66/2
